<svg width="184" height="105" viewBox="0 0 184 105" fill="none" xmlns="http://www.w3.org/2000/svg">
<path d="M0 52.5C0 24.4712 24.3279 2.64434 52.1926 5.67311L151.69 16.4881C170.073 18.4862 184 34.009 184 52.5C184 70.991 170.073 86.5138 151.69 88.5119L52.1925 99.3269C24.3278 102.356 0 80.5288 0 52.5Z" fill="url(#paint0_linear_324_775)"/>
<path d="M53.7676 64V51.4102C53.7676 49.8346 53.3665 48.6745 52.5645 47.9297C51.7624 47.1562 50.7025 46.7695 49.3848 46.7695C48.3249 46.7695 47.4225 47.1133 46.6777 47.8008C45.9329 48.4596 45.2168 49.2474 44.5293 50.1641L43.498 46.3828C44.3861 45.151 45.4316 44.0911 46.6348 43.2031C47.8379 42.2865 49.2272 41.8281 50.8027 41.8281C52.2637 41.8281 53.61 42.1576 54.8418 42.8164C56.0736 43.4753 57.0475 44.4635 57.7637 45.7812C58.5085 47.099 58.8809 48.7461 58.8809 50.7227V64H53.7676ZM25.4941 64V42.3438H30.5645V64H25.4941ZM39.6309 64L39.5879 51.4102C39.5879 49.8346 39.1868 48.6745 38.3848 47.9297C37.6113 47.1562 36.5658 46.7695 35.248 46.7695C34.1882 46.7695 33.2572 47.1133 32.4551 47.8008C31.653 48.4596 30.9082 49.2474 30.2207 50.1641V45.5234C30.679 44.9219 31.1947 44.349 31.7676 43.8047C32.3691 43.2318 33.071 42.7591 33.873 42.3867C34.6751 42.0143 35.6061 41.8281 36.666 41.8281C38.3848 41.8281 39.9316 42.3008 41.3066 43.2461C42.7103 44.1628 43.6842 45.5234 44.2285 47.3281L44.7012 49.1758V64H39.6309ZM75.252 64.6445C73.6478 64.6445 72.1439 64.3581 70.7402 63.7852C69.3652 63.1836 68.1478 62.3672 67.0879 61.3359C66.028 60.3047 65.1973 59.1016 64.5957 57.7266C63.9941 56.3229 63.6934 54.8333 63.6934 53.2578C63.6934 51.6536 63.9941 50.1641 64.5957 48.7891C65.1973 47.4141 66.028 46.2109 67.0879 45.1797C68.1478 44.1198 69.3652 43.3034 70.7402 42.7305C72.1439 42.1289 73.6478 41.8281 75.252 41.8281C76.8275 41.8281 78.3027 42.1289 79.6777 42.7305C81.0814 43.3034 82.3132 44.1198 83.373 45.1797C84.4616 46.2109 85.2923 47.4141 85.8652 48.7891C86.4668 50.1641 86.7676 51.6536 86.7676 53.2578C86.7676 54.8333 86.4668 56.3229 85.8652 57.7266C85.2923 59.1016 84.4616 60.3047 83.373 61.3359C82.3132 62.3672 81.0814 63.1836 79.6777 63.7852C78.3027 64.3581 76.8275 64.6445 75.252 64.6445ZM75.252 59.7461C76.3978 59.7461 77.429 59.4883 78.3457 58.9727C79.291 58.4284 80.0358 57.6693 80.5801 56.6953C81.1243 55.7214 81.3965 54.5755 81.3965 53.2578C81.3965 51.9115 81.1243 50.7513 80.5801 49.7773C80.0358 48.8034 79.291 48.0586 78.3457 47.543C77.429 46.9987 76.3978 46.7266 75.252 46.7266C74.1348 46.7266 73.1035 46.9987 72.1582 47.543C71.2129 48.0586 70.4538 48.8034 69.8809 49.7773C69.3366 50.7513 69.0645 51.9115 69.0645 53.2578C69.0645 54.5755 69.3366 55.7214 69.8809 56.6953C70.4538 57.6693 71.2129 58.4284 72.1582 58.9727C73.1035 59.4883 74.1348 59.7461 75.252 59.7461ZM100.346 64.6445C98.5983 64.6445 96.9798 64.2005 95.4902 63.3125C94.0007 62.4245 92.7975 61.1354 91.8809 59.4453C90.9928 57.7552 90.5488 55.7214 90.5488 53.3438C90.5488 50.9375 90.9928 48.875 91.8809 47.1562C92.7975 45.4375 94.0293 44.1198 95.5762 43.2031C97.123 42.2865 98.8418 41.8281 100.732 41.8281C101.907 41.8281 103.096 42.1146 104.299 42.6875C105.531 43.2318 106.562 43.9622 107.393 44.8789V33.0625H112.463V64H107.393V60.3477C106.734 61.5221 105.788 62.5391 104.557 63.3984C103.354 64.2292 101.95 64.6445 100.346 64.6445ZM101.549 59.5742C102.58 59.5742 103.54 59.3021 104.428 58.7578C105.316 58.2135 106.032 57.4544 106.576 56.4805C107.12 55.4779 107.393 54.3034 107.393 52.957L107.35 49.6484C106.576 48.7604 105.717 48.0729 104.771 47.5859C103.855 47.0703 102.838 46.8125 101.721 46.8125C100.518 46.8125 99.472 47.1276 98.584 47.7578C97.696 48.3594 97.0085 49.1615 96.5215 50.1641C96.0632 51.138 95.834 52.1979 95.834 53.3438C95.834 54.4896 96.0632 55.5352 96.5215 56.4805C97.0085 57.4258 97.6816 58.1849 98.541 58.7578C99.4004 59.3021 100.403 59.5742 101.549 59.5742ZM128.447 64.5156C126.585 64.5156 124.924 64.1432 123.463 63.3984C122.031 62.6536 120.885 61.5938 120.025 60.2188C119.195 58.8151 118.779 57.1536 118.779 55.2344V42.3438H123.936V54.4609C123.936 56.151 124.365 57.4401 125.225 58.3281C126.084 59.1875 127.158 59.6172 128.447 59.6172C129.736 59.6172 130.796 59.1875 131.627 58.3281C132.486 57.4401 132.916 56.151 132.916 54.4609V42.3438H138.115V55.2344C138.115 57.1536 137.686 58.8151 136.826 60.2188C135.995 61.5938 134.85 62.6536 133.389 63.3984C131.928 64.1432 130.281 64.5156 128.447 64.5156ZM150.189 64.6445C149.273 64.6445 148.342 64.5299 147.396 64.3008C146.451 64.1003 145.592 63.8424 144.818 63.5273C144.045 63.1836 143.429 62.8542 142.971 62.5391V57.9414C143.486 58.2852 144.131 58.6432 144.904 59.0156C145.678 59.3594 146.465 59.6458 147.268 59.875C148.098 60.0755 148.872 60.1758 149.588 60.1758C150.734 60.1758 151.607 59.9609 152.209 59.5312C152.839 59.1016 153.154 58.5143 153.154 57.7695C153.154 57.1966 152.896 56.7526 152.381 56.4375C151.894 56.0938 151.178 55.75 150.232 55.4062L147.482 54.4609C145.821 53.888 144.675 53.1003 144.045 52.0977C143.443 51.0951 143.143 49.9206 143.143 48.5742C143.143 47.2279 143.486 46.0534 144.174 45.0508C144.861 44.0482 145.821 43.2604 147.053 42.6875C148.313 42.1146 149.745 41.8281 151.35 41.8281C152.667 41.8281 153.899 42.0286 155.045 42.4297C156.191 42.8021 157.05 43.2318 157.623 43.7188V48.3164C156.964 47.8581 156.133 47.4284 155.131 47.0273C154.157 46.5977 153.126 46.3828 152.037 46.3828C150.949 46.3828 150.089 46.6263 149.459 47.1133C148.857 47.6003 148.557 48.1589 148.557 48.7891C148.557 49.276 148.729 49.7344 149.072 50.1641C149.445 50.5651 150.104 50.9089 151.049 51.1953L153.756 52.1406C155.36 52.6276 156.549 53.3438 157.322 54.2891C158.124 55.2344 158.525 56.3945 158.525 57.7695C158.525 59.0586 158.153 60.2331 157.408 61.293C156.663 62.3242 155.661 63.1406 154.4 63.7422C153.169 64.3438 151.765 64.6445 150.189 64.6445Z" fill="white"/>
<rect x="153.5" y="13" width="25" height="25" rx="12.5" fill="#8095FF"/>
<defs>
<linearGradient id="paint0_linear_324_775" x1="92" y1="0" x2="92" y2="105" gradientUnits="userSpaceOnUse">
<stop stop-color="#6674FF"/>
<stop offset="1" stop-color="#2132D2"/>
</linearGradient>
</defs>
</svg>
